<?xml version="1.0" encoding="UTF-8"?>
<svg id="icon-lock" viewBox="0 0 24 24" version="1.1" xmlns="http://www.w3.org/2000/svg" xmlns:xlink="http://www.w3.org/1999/xlink">
    <title>Icons / Status Bar / Lock</title>
    <defs>
        <path d="M17.5,20.5 L17.5,11.5 L17,11.5 L7,11.5 L6.5,11.5 L6.5,20.5 L17.5,20.5 Z M8.5,7 L8.5,10 L15.5,10 L15.5,7 C15.5,5.07 13.93,3.5 12,3.5 C10.07,3.5 8.5,5.07 8.5,7 Z M18,10 C18.553,10 19,10.448 19,11 L19,21 C19,21.553 18.553,22 18,22 L6,22 C5.447,22 5,21.553 5,21 L5,11 C5,10.448 5.447,10 6,10 L7,10 L7,7 C7,4.239 9.238,2 12,2 C14.762,2 17,4.239 17,7 L17,10 L18,10 Z M12,13.75 C12.414,13.75 12.75,14.086 12.75,14.5 L12.75,17.5 C12.75,17.914 12.414,18.25 12,18.25 C11.586,18.25 11.25,17.914 11.25,17.5 L11.25,14.5 C11.25,14.086 11.586,13.75 12,13.75 Z" id="icon-lock-path"></path>
    </defs>
    <g id="Icons-/-Status-Bar-/-Lock" stroke="none" stroke-width="1" fill="none" fill-rule="evenodd">
        <mask id="mask-2">
            <use xlink:href="#icon-lock-path"></use>
        </mask>
        <use id="Lock" class="icon-lock__path" xlink:href="#icon-lock-path"></use>
    </g>
</svg>