<svg id="icon-mop-card" viewBox="0 0 24 24" version="1.1" xmlns="http://www.w3.org/2000/svg" xmlns:xlink="http://www.w3.org/1999/xlink">
    <defs>
        <path d="M2.5,3 L2.5,4.75 L17.5,4.75 L17.5,3 C17.5,2.724 17.275,2.5 17,2.5 L3,2.5 C2.725,2.5 2.5,2.724 2.5,3 Z M2.5,6.25 L2.5,12 C2.5,12.276 2.725,12.5 3,12.5 L3.5,12.5 L3.5,14 L3,14 C1.896,14 1,13.104 1,12 L1,6.75 L1,4.25 L1,3 C1,1.896 1.896,1 3,1 L17,1 C18.104,1 19,1.896 19,3 L19,8.5 L17.5,8.5 L17.5,6.25 L2.5,6.25 Z M21.5,21 L21.5,12 C21.5,11.724 21.275,11.5 21,11.5 L19,11.5 L17.5,11.5 L7,11.5 C6.725,11.5 6.5,11.724 6.5,12 L6.5,12.5 L6.5,14 L6.5,21 C6.5,21.275 6.725,21.5 7,21.5 L21,21.5 C21.275,21.5 21.5,21.275 21.5,21 Z M21,10 C22.104,10 23,10.896 23,12 L23,21 C23,22.104 22.104,23 21,23 L7,23 C5.896,23 5,22.104 5,21 L5,14.5 L5,14 L5,12.5 L5,12 C5,10.896 5.896,10 7,10 L16.75,10 L17.5,10 L19,10 L19.75,10 L21,10 Z M8.5,16 C8.224,16 8,15.776 8,15.5 L8,14 L8,13.5 C8,13.224 8.224,13 8.5,13 L11.5,13 C11.776,13 12,13.224 12,13.5 L12,14 L12,15.5 C12,15.776 11.776,16 11.5,16 L8.5,16 Z M8,20 L8,18.5 L10.2,18.5 L10.2,20 L8,20 Z M17.8,20 L17.8,18.5 L20,18.5 L20,20 L17.8,20 Z M14.533,20 L14.533,18.5 L16.733,18.5 L16.733,20 L14.533,20 Z M11.267,20 L11.267,18.5 L13.467,18.5 L13.467,20 L11.267,20 Z" id="path-icon-mop-card"></path>
    </defs>
    <g id="Icons-/-MOP-/-MOPCard" stroke="none" stroke-width="1" fill="none" fill-rule="evenodd">
        <mask id="mask-2" fill="white">
            <use xlink:href="#path-icon-mop-card"></use>
        </mask>
        <use id="MOP-Card" class="icon-mop-card__path" xlink:href="#path-icon-mop-card"></use>
    </g>
</svg>